<svg id="Layer_1" height="512" viewBox="0 0 128 128" width="512" xmlns="http://www.w3.org/2000/svg" data-name="Layer 1">
<g id="Page-1" stroke="none" stroke-width="1" fill="none" fill-rule="evenodd">
    <g id="Group" transform="translate(10.000000, 10.000000)" stroke="#ff495f" stroke-width="1">
        <path d="m38.3 88.245c4.412 0 8-4.38 8-9.763s-3.59-9.764-8-9.764h-.01-.046c-4.386.037-7.946 4.4-7.946 9.76.002 5.386 3.591 9.765 8.002 9.767zm4.5-9.762a7.409 7.409 0 0 1 -1.687 4.843 9.246 9.246 0 0 0 -1.31-5.738 5.98 5.98 0 0 1 -.487-5.194c1.973.662 3.484 3.179 3.484 6.088zm-7.316-4.844a9.251 9.251 0 0 0 1.31 5.739 5.98 5.98 0 0 1 .487 5.193c-1.969-.662-3.485-3.178-3.485-6.088a7.41 7.41 0 0 1 1.693-4.845z"/>
        <path d="m114.477 104.25h-7.839a12.787 12.787 0 0 0 4.054-9.335v-30.142a1.75 1.75 0 0 0 -1.75-1.75h-10.894v-1.023a5.735 5.735 0 1 0 -11.47 0v1.022h-18.863a1.75 1.75 0 0 0 -1.75 1.75v3.536a14.822 14.822 0 0 0 -2.366.478l.316-3.6a3.664 3.664 0 0 0 -3.249-3.978l.866-12.357h1.551a1.75 1.75 0 0 0 1.75-1.75v-7.379a1.75 1.75 0 0 0 -1.75-1.75h-3.754a10.17 10.17 0 0 0 -10-8.412h-7.079v-13.552a1.75 1.75 0 0 0 -1.75-1.75h-4.4a1.75 1.75 0 0 0 -1.75 1.75v13.552h-7.073a10.17 10.17 0 0 0 -10 8.412h-3.754a1.75 1.75 0 0 0 -1.75 1.75v7.378a1.75 1.75 0 0 0 1.75 1.75h1.551l.866 12.356a3.664 3.664 0 0 0 -3.249 3.979l2.386 27.243a3.667 3.667 0 0 0 3.284 3.34l.889 12.688a5.7 5.7 0 0 0 5.67 5.287h26.765a5.7 5.7 0 0 0 5.67-5.287l.889-12.688a3.669 3.669 0 0 0 1.08-.283 14.842 14.842 0 0 0 7.032 2.515 12.823 12.823 0 0 0 3.662 6.247h-7.84a1.75 1.75 0 0 0 -1.75 1.75 7.751 7.751 0 0 0 7.743 7.742h40.312a7.751 7.751 0 0 0 7.744-7.739 1.75 1.75 0 0 0 -1.75-1.75zm-24.399-42.25a2.235 2.235 0 1 1 4.47 0v1.022h-4.47zm-24.113 26.74a5.872 5.872 0 0 1 0-11.21zm0-14.807a9.365 9.365 0 0 0 0 18.4v2.087a11.422 11.422 0 0 1 0-22.579zm-28.11-56.175h.9v11.8h-.9zm-10.578 15.302h22.052a6.668 6.668 0 0 1 6.421 4.912h-34.893a6.668 6.668 0 0 1 6.42-4.912zm-12 8.412h46.056v3.877h-46.06zm42.75 7.377-.863 12.311h-37.719l-.863-12.311zm-41.849 16.029a.2.2 0 0 1 .2-.219h43.85a.191.191 0 0 1 .148.065.2.2 0 0 1 .053.154l-.485 5.522a14.874 14.874 0 0 0 -4 21.9h-37.179a.2.2 0 0 1 -.2-.184zm35.507 45.364h-26.764a2.191 2.191 0 0 1 -2.179-2.031l-.869-12.411h32.86l-.869 12.406a2.192 2.192 0 0 1 -2.179 2.036zm17.78-15.327v-28.392h25.083v3.618l-4.513 2.059a1.751 1.751 0 0 0 -1.022 1.6v13.97a1.75 1.75 0 0 0 1.75 1.75h11.07a1.75 1.75 0 0 0 1.75-1.75v-13.97a1.751 1.751 0 0 0 -1.022-1.592l-4.513-2.063v-3.622h9.144v28.392a9.346 9.346 0 0 1 -9.336 9.335h-19.056a9.345 9.345 0 0 1 -9.335-9.335zm26.835-21.726 3.785 1.73v11.1h-7.57v-11.099zm12.186 37.053h-40.314a4.249 4.249 0 0 1 -3.865-2.492h48.042a4.249 4.249 0 0 1 -3.866 2.492z"/>
    </g>
</g>
</svg>