<svg version="1.1" id="Layer_1" xmlns:x="&ns_extend;" xmlns:i="&ns_ai;" xmlns:graph="&ns_graphs;"
	 xmlns="http://www.w3.org/2000/svg" xmlns:xlink="http://www.w3.org/1999/xlink" x="0px" y="0px" viewBox="0 0 432 432"
	 style="enable-background:new 0 0 432 432;" xml:space="preserve">

<g id="Page-1" stroke="none" stroke-width="1" fill="none" fill-rule="evenodd">
    <g id="Group" transform="translate(10.000000, 10.000000)" stroke="#ff495f" stroke-width="1">
		<path d="M424.516,193.717c-1.058-2.229-2.792-3.932-5.195-5.107c-2.408-1.173-5.226-2.052-8.453-2.642
			c-3.232-0.585-6.667-0.879-10.302-0.879c-3.643,0-7.252,0.117-10.833,0.351c-3.583,0.236-6.956,0.559-10.126,0.97
			c-3.17,0.411-5.871,0.733-8.102,0.967c-4.93,0.59-9.54,1.03-13.823,1.321c-4.288,0.294-7.78,0.325-10.479,0.088
			c0.468-1.29,0.645-2.699,0.528-4.228c-0.117-1.524-0.705-2.757-1.76-3.698c-0.824-0.819-1.734-1.29-2.73-1.409
			c-0.998-0.115-1.937,0.062-2.819,0.528c-0.879,0.471-1.584,1.175-2.112,2.114c-0.528,0.941-0.678,1.999-0.442,3.17
			c0.234,1.295,0.91,2.379,2.026,3.258c1.115,0.881,2.494,1.615,4.14,2.202c-1.646,3.521-3.671,6.81-6.077,9.863
			c-2.408,3.053-4.961,5.783-7.66,8.188c-2.702,2.408-5.343,4.491-7.926,6.251c-2.582,1.763-4.816,3.232-6.691,4.405
			c1.29-5.167,2.403-9.803,3.344-13.914c0.939-4.108,1.643-7.336,2.114-9.686c0.234-1.173-0.029-2.114-0.793-2.819
			s-1.672-1.113-2.728-1.233c-1.058-0.115-2.088,0.119-3.084,0.705c-0.998,0.59-1.672,1.586-2.023,2.995
			c-0.119,0.702-0.647,1.909-1.586,3.609c-0.941,1.703-2.026,3.583-3.258,5.635c-1.233,2.057-2.527,4.082-3.874,6.077
			c-1.352,1.997-2.585,3.552-3.698,4.667c-1.118,1.116-1.999,1.615-2.642,1.495c-0.647-0.115-0.853-1.233-0.616-3.344
			c0.234-1.409,0.528-2.936,0.879-4.579c0.354-1.643,0.733-3.258,1.147-4.844c0.408-1.584,0.791-2.964,1.144-4.14
			c0.351-1.17,0.585-2.052,0.705-2.639c0.351-1.292,0.203-2.291-0.442-2.995c-0.645-0.705-1.469-1.084-2.465-1.144
			c-0.998-0.057-2.026,0.205-3.081,0.793c-1.056,0.588-1.823,1.526-2.288,2.816c-1.295,3.76-2.317,7.574-3.084,11.449
			c-0.762,3.874-1.025,6.753-0.791,8.628c0.028,0.322,0.104,0.579,0.155,0.871c-0.929,1.71-1.969,3.588-3.148,5.676
			c-1.273,2.25-2.642,4.548-4.108,6.896c-1.469,2.348-2.936,4.455-4.402,6.311c-1.469,1.861-2.914,3.354-4.331,4.476
			c-1.419,1.125-2.666,1.541-3.743,1.247c-0.784-0.193-1.345-1.123-1.686-2.788c-0.344-1.663-0.368-3.765-0.074-6.311
			c0.294-2.054,0.757-4.402,1.395-7.044c0.635-2.642,1.395-5.406,2.274-8.291c0.881-2.885,1.834-5.821,2.862-8.807
			c1.027-2.983,2.03-5.893,3.01-8.733c2.348-6.552,4.89-13.302,7.632-20.251c-3.134,0.196-5.969,0.294-8.513,0.294
			c-2.253,0-4.355-0.098-6.311-0.294c-1.959-0.196-3.179-0.635-3.669-1.321c0.977-2.544,1.541-5.038,1.689-7.486
			c0.146-2.444-0.514-4.352-1.983-5.722c-1.173-0.977-2.398-1.467-3.669-1.467c-0.783,0-1.493,0.22-2.128,0.659
			c-0.635,0.442-1.149,1.1-1.541,1.981c-0.49,0.979-0.733,2.104-0.733,3.375c0,1.273,0.17,2.594,0.514,3.963
			c0.342,1.371,0.903,2.692,1.689,3.963c0.781,1.271,1.76,2.348,2.936,3.227l-16.539,33.778c-0.354,0.649-0.758,1.394-1.221,2.252
			c-0.979,1.811-2.104,3.841-3.375,6.091c-1.273,2.25-2.642,4.548-4.108,6.896c-1.469,2.348-2.936,4.455-4.402,6.311
			c-1.469,1.861-2.914,3.354-4.331,4.476c-1.419,1.125-2.666,1.541-3.743,1.247c-0.783-0.193-1.345-1.123-1.686-2.788
			c-0.344-1.663-0.368-3.765-0.074-6.311c0.294-2.054,0.757-4.402,1.395-7.044c0.635-2.642,1.395-5.406,2.274-8.291
			c0.881-2.885,1.834-5.821,2.862-8.807c1.027-2.983,2.03-5.893,3.01-8.733c2.348-6.552,4.89-13.302,7.632-20.251
			c-3.134,0.196-5.969,0.294-8.513,0.294c-2.253,0-4.355-0.098-6.311-0.294c-1.959-0.196-3.179-0.635-3.669-1.321
			c0.977-2.544,1.541-5.038,1.689-7.486c0.146-2.444-0.514-4.352-1.983-5.722c-1.173-0.977-2.398-1.467-3.669-1.467
			c-0.783,0-1.493,0.22-2.128,0.659c-0.635,0.442-1.149,1.1-1.541,1.981c-0.49,0.979-0.733,2.104-0.733,3.375
			c0,1.273,0.17,2.594,0.514,3.963c0.342,1.371,0.903,2.692,1.689,3.963c0.781,1.271,1.76,2.348,2.936,3.227l-16.76,34.23
			c-0.484,0.908-1.06,1.994-1.733,3.268c-1.371,2.594-2.912,5.358-4.622,8.293c-1.713,2.933-3.523,5.747-5.432,8.437
			c-1.906,2.692-3.741,4.624-5.503,5.797c-0.686,0.492-1.321,0.834-1.906,1.027c-0.588,0.198-1.273,0.198-2.054,0
			c-1.08-0.294-1.909-0.855-2.496-1.686c-0.588-0.831-0.979-1.784-1.173-2.862c-0.198-1.175-0.246-2.618-0.148-4.331
			c0.096-1.71,0.389-3.743,0.881-6.091c0.977-0.879,2.348-2.176,4.108-3.889c1.76-1.71,3.595-3.595,5.503-5.649
			c1.909-2.054,3.791-4.206,5.652-6.459c1.856-2.248,3.349-4.45,4.474-6.602c1.125-2.152,1.737-4.111,1.834-5.871
			c0.098-1.76-0.585-3.229-2.054-4.402c-2.544-1.858-5.062-2.592-7.558-2.202c-2.494,0.392-4.842,1.541-7.044,3.449
			c-2.202,1.909-4.183,4.429-5.943,7.558c-0.219,0.39-0.396,0.817-0.607,1.214c-0.49,0.706-0.989,1.425-1.555,2.225
			c-1.409,1.997-2.967,4.111-4.667,6.34c-1.703,2.233-3.521,4.491-5.458,6.781c-1.938,2.288-3.905,4.374-5.9,6.251
			c-0.705,0.59-1.352,0.91-1.937,0.97c-0.589,0.06-0.823-0.733-0.705-2.379c0.234-3.404,0.88-6.956,1.937-10.653
			c1.057-3.7,1.876-7.25,2.465-10.656c0.468-2.229,0.498-4.137,0.088-5.723c-0.413-1.586-1.087-2.73-2.026-3.435
			c-0.941-0.705-2.026-0.996-3.258-0.879c-1.233,0.117-2.438,0.764-3.61,1.937c-1.76,1.76-3.582,4.226-5.459,7.395
			c-1.879,3.17-3.64,5.874-5.283,8.102c0.703-3.523,0.703-6.457,0-8.807c-0.589-2.346-1.85-3.578-3.787-3.698
			c-1.937-0.115-3.67,0.705-5.195,2.465c-1.526,1.646-2.936,3.495-4.227,5.549c-1.293,2.054-2.526,4.08-3.698,6.074
			c-1.175,2.114-1.88,3.17-2.114,3.17c-0.236,0-0.118-0.762,0.352-2.288c0.468-1.524,1.145-3.698,2.026-6.516
			c0.88-2.819,1.789-5.926,2.73-9.335c0.233-0.936,0.115-1.672-0.352-2.2c-0.471-0.528-1.118-0.881-1.937-1.058
			c-0.823-0.174-1.704-0.232-2.642-0.174c-0.941,0.06-1.703,0.263-2.29,0.616c-5.047,0-9.568,0.676-13.56,2.026
			c-3.99,1.35-7.455,2.936-10.391,4.753c-2.933,1.823-5.311,3.671-7.133,5.549c-1.819,1.88-3.14,3.347-3.963,4.402
			c-2.699-1.29-6.28-2.026-10.743-2.202c-4.461-0.174-9.245-0.146-14.352,0.088c-5.108,0.236-10.303,0.528-15.586,0.881
			c-5.284,0.351-10.184,0.351-14.706,0c-4.518-0.354-8.335-1.233-11.446-2.642c-3.11-1.409-5.077-3.698-5.9-6.867
			c-0.234-0.588-0.732-0.793-1.498-0.619c-0.762,0.177-1.026,0.736-0.792,1.674c0.823,3.64,2.906,6.282,6.252,7.926
			c3.345,1.646,7.338,2.671,11.976,3.081c4.639,0.413,9.716,0.44,15.232,0.088c5.52-0.354,10.892-0.733,16.115-1.144
			c5.225-0.411,9.98-0.557,14.265-0.442c4.286,0.119,7.603,0.824,9.95,2.114c-0.705,1.292-1.203,2.642-1.496,4.051
			c-0.293,1.409-0.029,2.759,0.792,4.049c0.589,1.058,1.382,1.763,2.378,2.114c0.998,0.354,1.967,0.382,2.906,0.088
			c0.941-0.291,1.76-0.819,2.465-1.586c0.705-0.762,1.118-1.787,1.233-3.081c0.118-1.29-0.264-2.491-1.144-3.609
			c-0.88-1.116-2.083-2.14-3.61-3.081c0.823-1.173,2.144-2.613,3.963-4.316c1.821-1.701,4.05-3.347,6.692-4.93
			c2.642-1.586,5.696-2.964,9.158-4.14c3.465-1.17,7.369-1.818,11.712-1.937c-1.057,3.055-2.083,6.459-3.083,10.214
			c-0.996,3.76-1.788,6.987-2.377,9.688c-0.352,1.76-0.177,3.11,0.528,4.049c0.705,0.941,1.646,1.469,2.817,1.586
			c1.173,0.117,2.405-0.117,3.699-0.705c1.29-0.585,2.347-1.586,3.17-2.993c1.291-2.231,2.553-4.405,3.786-6.516
			c1.233-2.114,2.612-4.228,4.138-6.342c1.525-2.229,2.405-3.022,2.642-2.377c0.234,0.647,0.234,2.026,0,4.14
			c-0.589,4.462,0.059,7.25,1.937,8.365c1.877,1.116,3.756,0.559,5.636-1.674c0.939-1.056,2.201-2.905,3.786-5.546
			s3.022-4.902,4.315-6.781c1.642-2.58,2.729-4.049,3.258-4.402c0.528-0.351,0.732,0.062,0.616,1.233
			c-0.118,1.175-0.441,2.907-0.969,5.195c-0.528,2.291-1.057,4.756-1.585,7.398c-0.529,2.642-0.941,5.255-1.233,7.837
			c-0.295,2.582-0.207,4.753,0.264,6.516c0.586,2.112,1.731,3.552,3.434,4.314c1.701,0.764,3.435,0.502,5.195-0.793
			c1.525-1.056,3.347-2.73,5.46-5.019c2.112-2.291,4.194-4.725,6.251-7.309c0.636-0.799,1.24-1.6,1.854-2.4
			c-1.028,3.25-1.807,6.517-2.246,9.807c-0.49,3.669-0.537,7.02-0.148,10.054c0.392,3.034,1.273,5.575,2.642,7.629
			c1.369,2.057,3.375,3.229,6.017,3.523c1.075,0.196,2.152,0.048,3.229-0.44c2.348-0.881,4.696-2.666,7.044-5.358
			c2.348-2.69,4.55-5.649,6.605-8.879c2.054-3.229,3.91-6.406,5.575-9.54c1.663-3.129,2.936-5.575,3.817-7.338
			c0.066-0.134,0.051-0.241,0.049-0.352c0.52-1.031,1.08-2.161,1.711-3.463c1.565-3.229,3.229-6.605,4.99-10.126
			c1.76-3.523,3.449-6.922,5.064-10.2c1.615-3.277,2.909-5.797,3.889-7.56c0.977,0.686,2.444,1.225,4.402,1.615
			c1.956,0.392,3.865,0.686,5.723,0.881c-0.783,0.979-1.686,2.52-2.714,4.622c-1.027,2.104-2.081,4.55-3.155,7.338
			c-1.08,2.79-2.107,5.847-3.084,9.172c-0.977,3.327-1.858,6.655-2.639,9.98c-0.786,3.327-1.373,6.605-1.763,9.834
			c-0.392,3.227-0.537,6.163-0.44,8.805c0,0.979,0.074,2.081,0.22,3.301c0.148,1.225,0.416,2.374,0.807,3.449
			c0.389,1.077,0.953,2.033,1.689,2.862c0.733,0.834,1.734,1.299,3.007,1.395c1.663,0.196,3.375-0.268,5.136-1.395
			c1.763-1.123,3.497-2.642,5.212-4.548c1.71-1.909,3.375-4.085,4.99-6.531c1.612-2.446,3.103-4.868,4.474-7.266
			c1.371-2.396,2.592-4.646,3.669-6.75c0.305-0.596,0.591-1.15,0.864-1.679c0.898-1.572,2.119-3.97,3.686-7.199
			c1.565-3.229,3.229-6.605,4.99-10.126c1.76-3.523,3.449-6.922,5.064-10.2c1.615-3.277,2.909-5.797,3.889-7.56
			c0.977,0.686,2.444,1.225,4.402,1.615c1.956,0.392,3.865,0.686,5.723,0.881c-0.783,0.979-1.686,2.52-2.714,4.622
			c-1.027,2.104-2.081,4.55-3.155,7.338c-1.08,2.79-2.107,5.847-3.084,9.172c-0.977,3.327-1.858,6.655-2.639,9.98
			c-0.786,3.327-1.373,6.605-1.763,9.834c-0.392,3.227-0.537,6.163-0.44,8.805c0,0.979,0.074,2.081,0.22,3.301
			c0.148,1.225,0.416,2.374,0.807,3.449c0.389,1.077,0.953,2.033,1.689,2.862c0.733,0.834,1.734,1.299,3.007,1.395
			c1.663,0.196,3.375-0.268,5.136-1.395c1.763-1.123,3.497-2.642,5.212-4.548c1.71-1.909,3.375-4.085,4.99-6.531
			c1.612-2.446,3.103-4.868,4.474-7.266c1.235-2.159,2.331-4.182,3.328-6.104c0.522,1.019,1.271,1.735,2.307,2.07
			c1.818,0.588,3.901,0.174,6.251-1.233c1.173-0.822,2.405-1.909,3.698-3.258c1.292-1.35,2.494-2.819,3.612-4.405
			c1.113-1.584,2.171-3.108,3.17-4.577c0.996-1.467,1.789-2.671,2.377-3.612c-0.588,2.819-1.321,6.019-2.2,9.598
			c-0.881,3.583-1.849,7.252-2.907,11.007c-5.284,3.17-10.362,6.516-15.232,10.04c-4.87,3.521-8.953,7.691-12.24,12.502
			c-3.404,4.933-5.606,9.688-6.605,14.265c-0.996,4.579-1.084,8.394-0.265,11.449c0.941,3.17,2.585,5.253,4.933,6.251
			c2.348,0.996,5.047,1.027,8.1,0.088c4.228-1.409,7.983-4.464,11.272-9.158c3.284-4.696,6.191-9.98,8.716-15.849
			c2.525-5.874,4.636-11.74,6.34-17.612c1.701-5.869,3.084-10.682,4.14-14.442c3.284-1.995,6.457-4.077,9.509-6.251
			c3.053-2.171,5.929-4.55,8.63-7.133c2.699-2.582,5.195-5.372,7.484-8.365c2.291-2.995,4.316-6.368,6.077-10.128
			c2.819,0.471,6.397,0.502,10.742,0.088c4.343-0.408,9.158-0.85,14.442-1.321c4.579-0.351,9.509-0.819,14.793-1.409
			c5.284-0.585,10.331-0.879,15.146-0.879c4.813,0,9.096,0.559,12.856,1.672c3.757,1.118,6.457,3.143,8.102,6.077
			c0.232,0.471,0.702,0.528,1.407,0.177C424.69,195.126,424.867,194.541,424.516,193.717z M87.774,215.913
			c0.646,0.647,1.03,1.498,1.144,2.553c0.119,1.409-0.41,2.319-1.585,2.73c-1.172,0.413-2.052,0.031-2.641-1.144
			c-0.821-1.409-0.586-3.347,0.703-5.812C86.338,214.711,87.131,215.268,87.774,215.913z M183.861,206.926
			c1.175-2.446,2.396-4.572,3.669-6.385c1.271-1.808,2.618-3.129,4.037-3.963c1.416-0.829,2.811-0.807,4.183,0.074
			c1.075,0.783,1.416,1.959,1.027,3.523c-0.392,1.565-1.225,3.351-2.496,5.355c-1.271,2.006-2.811,4.061-4.622,6.165
			c-1.811,2.104-3.547,4.061-5.21,5.869c-1.665,1.813-3.132,3.327-4.402,4.55c-1.273,1.225-2.006,1.932-2.202,2.128
			c0.098-0.683,0.416-1.956,0.955-3.817c0.535-1.856,1.221-3.963,2.054-6.311C181.682,211.768,182.688,209.372,183.861,206.926z
			 M220.405,178.014c-1.077-0.781-1.959-2.102-2.642-3.963c-0.686-1.856-1.027-3.471-1.027-4.842c0.096-1.369,0.683-2.25,1.76-2.642
			c0.683-0.096,1.416,0.196,2.202,0.879c0.781,1.08,1.123,2.694,1.027,4.844C221.625,174.443,221.186,176.352,220.405,178.014z
			 M264.432,178.014c-1.077-0.781-1.959-2.102-2.642-3.963c-0.686-1.856-1.027-3.471-1.027-4.842c0.096-1.369,0.683-2.25,1.76-2.642
			c0.683-0.096,1.416,0.196,2.202,0.879c0.781,1.08,1.123,2.694,1.027,4.844C265.653,174.443,265.213,176.352,264.432,178.014z
			 M301.148,240.475c-1.469,4.756-3.17,9.538-5.107,14.353c-1.937,4.813-4.111,9.273-6.516,13.384
			c-2.405,4.108-4.959,6.927-7.66,8.453c-1.995,1.173-3.698,1.409-5.107,0.705s-2.405-2.231-2.995-4.579
			c-0.705-2.702-0.616-6.105,0.265-10.214c0.881-4.111,2.905-8.513,6.077-13.209c2.936-4.226,6.545-7.952,10.83-11.181
			c4.285-3.229,8.833-6.311,13.649-9.246C303.759,231.876,302.615,235.719,301.148,240.475z M344.911,188.433
			c-0.939-0.234-1.82-0.585-2.639-1.056c-0.824-0.468-1.409-1.173-1.763-2.114c-0.471-1.29-0.205-2.288,0.793-2.993
			c0.996-0.705,1.966-0.585,2.907,0.351C345.379,183.797,345.616,185.734,344.911,188.433z"/>
	</g>
</g>
</svg>
